<svg width="505" height="118" viewBox="0 0 505 118" fill="none" xmlns="http://www.w3.org/2000/svg">
<path d="M126.893 71.1541C127.231 75.9271 129.142 79.7444 132.639 82.6001C136.136 85.4616 140.571 86.8867 145.951 86.8867C150.792 86.8867 154.707 85.8279 157.7 83.7104C160.693 81.5929 162.187 78.6513 162.187 74.8855C162.187 72.127 161.363 69.9466 159.714 68.3327C158.066 66.7188 155.949 65.5284 153.362 64.7501C150.775 63.9775 147.261 63.2221 142.826 62.4838C135.769 61.2705 130.149 59.2904 125.983 56.5319C121.811 53.7734 119.728 49.3037 119.728 43.1172C119.728 39.1511 120.735 35.6372 122.755 32.5754C124.77 29.5193 127.614 27.1443 131.277 25.4674C134.94 23.7849 139.123 22.9436 143.833 22.9436C148.806 22.9436 153.213 23.8536 157.042 25.6677C160.87 27.4819 163.898 30.023 166.118 33.2793C168.339 36.5414 169.581 40.29 169.85 44.525H161.179C160.642 40.4274 158.793 37.1309 155.634 34.6414C152.475 32.1519 148.537 30.91 143.833 30.91C139.129 30.91 135.397 31.9344 132.639 33.9833C129.88 36.0321 128.507 38.9108 128.507 42.6078C128.507 45.2976 129.314 47.398 130.928 48.9088C132.542 50.4197 134.625 51.5643 137.183 52.3369C139.735 53.1095 143.232 53.865 147.673 54.6032C154.735 55.8108 160.378 57.8138 164.613 60.6009C168.848 63.3937 170.966 67.8806 170.966 74.0671C170.966 78.1019 169.907 81.6959 167.79 84.8607C165.672 88.0198 162.713 90.475 158.913 92.2205C155.113 93.9717 150.758 94.8416 145.853 94.8416C140.342 94.8416 135.535 93.8515 131.431 91.8657C127.328 89.8855 124.152 87.0927 121.903 83.4929C119.648 79.8989 118.423 75.7783 118.223 71.137H126.893V71.1541Z" fill="#181818"/>
<path d="M185.737 91.528C181.869 89.3074 178.864 86.217 176.712 82.251C174.56 78.2849 173.484 73.7123 173.484 68.533C173.484 63.3536 174.56 58.7867 176.712 54.8149C178.864 50.8489 181.869 47.7585 185.737 45.538C189.6 43.3174 194.024 42.2129 198.997 42.2129C203.971 42.2129 208.395 43.3232 212.258 45.538C216.121 47.7585 219.131 50.8489 221.283 54.8149C223.435 58.781 224.511 63.3536 224.511 68.533C224.511 73.7123 223.435 78.2849 221.283 82.251C219.131 86.217 216.121 89.3074 212.258 91.528C208.389 93.7485 203.971 94.8587 198.997 94.8587C194.024 94.8587 189.6 93.7485 185.737 91.528ZM207.925 85.0724C210.512 83.4585 212.515 81.2094 213.923 78.3136C215.337 75.4234 216.041 72.1613 216.041 68.533C216.041 64.9046 215.337 61.6425 213.923 58.7524C212.509 55.8622 210.512 53.6074 207.925 51.9935C205.339 50.3796 202.363 49.5727 198.997 49.5727C195.632 49.5727 192.662 50.3796 190.07 51.9935C187.483 53.6074 185.48 55.8622 184.072 58.7524C182.658 61.6425 181.954 64.9046 181.954 68.533C181.954 72.1613 182.658 75.4234 184.072 78.3136C185.486 81.2037 187.483 83.4585 190.07 85.0724C192.656 86.6863 195.632 87.4933 198.997 87.4933C202.363 87.4933 205.333 86.6863 207.925 85.0724Z" fill="#181818"/>
<path d="M268.227 47.8615C272.027 51.6272 273.928 57.5448 273.928 65.6085V94.2521H265.658V66.1179C265.658 60.8069 264.462 56.7551 262.075 53.968C259.689 51.1809 256.243 49.7844 251.739 49.7844C246.898 49.7844 243.098 51.467 240.345 54.8264C237.586 58.1915 236.207 62.7585 236.207 68.5444V94.2636H227.938V42.831H235.097L236.207 49.7902C240.105 44.7482 245.753 42.2244 253.147 42.2244C259.403 42.2244 264.427 44.1072 268.222 47.873L268.227 47.8615Z" fill="#181818"/>
<path d="M289.394 91.528C285.525 89.3074 282.52 86.217 280.368 82.251C278.217 78.2849 277.141 73.7123 277.141 68.533C277.141 63.3536 278.217 58.7867 280.368 54.8149C282.52 50.8489 285.525 47.7585 289.394 45.538C293.257 43.3174 297.68 42.2129 302.654 42.2129C307.627 42.2129 312.051 43.3232 315.914 45.538C319.777 47.7585 322.787 50.8489 324.939 54.8149C327.091 58.781 328.167 63.3536 328.167 68.533C328.167 73.7123 327.091 78.2849 324.939 82.251C322.787 86.217 319.777 89.3074 315.914 91.528C312.045 93.7485 307.627 94.8587 302.654 94.8587C297.68 94.8587 293.257 93.7485 289.394 91.528ZM311.582 85.0724C314.168 83.4585 316.171 81.2094 317.579 78.3136C318.993 75.4234 319.697 72.1613 319.697 68.533C319.697 64.9046 318.993 61.6425 317.579 58.7524C316.166 55.8622 314.168 53.6074 311.582 51.9935C308.995 50.3796 306.019 49.5727 302.654 49.5727C299.289 49.5727 296.318 50.3796 293.732 51.9935C291.145 53.6074 289.142 55.8622 287.728 58.7524C286.315 61.6425 285.611 64.9046 285.611 68.533C285.611 72.1613 286.315 75.4234 287.728 78.3136C289.142 81.2037 291.139 83.4585 293.732 85.0724C296.318 86.6863 299.294 87.4933 302.654 87.4933C306.013 87.4933 308.989 86.6863 311.582 85.0724Z" fill="#181818"/>
<path d="M370.936 89.9656C366.97 93.2277 361.928 94.8587 355.81 94.8587C350.831 94.8587 346.465 93.7485 342.699 91.528C338.933 89.3074 336.009 86.1999 333.926 82.1995C331.842 78.1991 330.801 73.6093 330.801 68.4357C330.801 63.2621 331.86 58.6894 333.977 54.7176C336.095 50.7516 339.07 47.6784 342.905 45.4922C346.739 43.306 351.14 42.2129 356.114 42.2129C362.163 42.2129 367.159 43.8268 371.091 47.0545C375.022 50.2823 377.495 54.7176 378.502 60.3662H370.129C369.322 57.0755 367.64 54.4487 365.087 52.5028C362.529 50.5513 359.439 49.5784 355.81 49.5784C350.9 49.5784 346.917 51.3296 343.861 54.8207C340.799 58.3174 339.271 62.8557 339.271 68.4357C339.271 74.0156 340.799 78.6741 343.861 82.1995C346.917 85.7306 350.9 87.4933 355.81 87.4933C359.576 87.4933 362.735 86.5203 365.288 84.5688C367.84 82.6173 369.488 79.9274 370.226 76.4994H378.496C377.42 82.2166 374.896 86.7035 370.93 89.9656H370.936Z" fill="#181818"/>
<path d="M384.302 54.7176C386.351 50.7516 389.224 47.6784 392.926 45.4922C396.624 43.306 400.859 42.2129 405.632 42.2129C410.405 42.2129 414.508 43.1858 418.136 45.1373C421.765 47.0889 424.626 49.9103 426.709 53.6074C428.792 57.3044 429.903 61.6425 430.04 66.6158C430.04 67.354 429.971 68.533 429.84 70.1468H389.905V70.8508C390.036 75.8927 391.587 79.9274 394.546 82.9549C397.505 85.9824 401.368 87.4933 406.141 87.4933C409.838 87.4933 412.98 86.5718 415.572 84.7176C418.159 82.8691 419.893 80.2994 420.769 77.003H429.142C428.134 82.2453 425.611 86.5318 421.576 89.8626C417.541 93.1876 412.602 94.853 406.753 94.853C401.643 94.853 397.173 93.7599 393.338 91.5737C389.504 89.3876 386.528 86.2971 384.411 82.2968C382.293 78.2964 381.234 73.7065 381.234 68.533C381.234 63.3594 382.259 58.6837 384.313 54.7176H384.302ZM421.467 63.2907C421.061 58.9183 419.435 55.5246 416.574 53.1038C413.718 50.6829 410.101 49.4754 405.735 49.4754C401.837 49.4754 398.403 50.7516 395.45 53.3098C392.491 55.868 390.809 59.193 390.408 63.2964H421.467V63.2907Z" fill="#181818"/>
<path d="M482.068 86.6864V94.2522H477.53C474.233 94.2522 471.881 93.5826 470.473 92.2377C469.06 90.8928 468.321 88.9069 468.253 86.2858C464.287 92.0031 458.535 94.8588 451.009 94.8588C445.292 94.8588 440.708 93.5139 437.245 90.8241C433.783 88.1343 432.055 84.4716 432.055 79.8303C432.055 74.6567 433.817 70.6906 437.348 67.9321C440.88 65.1737 446.002 63.7944 452.726 63.7944H467.852V60.2633C467.852 56.9039 466.725 54.2771 464.475 52.3942C462.221 50.5113 459.079 49.5728 455.044 49.5728C451.479 49.5728 448.537 50.3625 446.219 51.9421C443.901 53.5216 442.471 55.622 441.933 58.2431H433.663C434.269 53.2012 436.501 49.2695 440.37 46.4423C444.233 43.6209 449.264 42.2073 455.445 42.2073C462.032 42.2073 467.125 43.804 470.725 46.9974C474.319 50.1909 476.122 54.7807 476.122 60.7612V82.9493C476.122 85.4388 477.266 86.6807 479.55 86.6807H482.074L482.068 86.6864ZM467.852 70.7536H451.919C444.256 70.7536 440.422 73.6151 440.422 79.3266C440.422 81.8848 441.429 83.9336 443.449 85.4789C445.464 87.0241 448.188 87.7967 451.616 87.7967C456.658 87.7967 460.624 86.4689 463.514 83.8135C466.404 81.158 467.852 77.6441 467.852 73.2717V70.7479V70.7536Z" fill="#181818"/>
<path d="M482.061 29.0159C483.137 27.1559 484.608 25.6965 486.473 24.6378C488.333 23.579 490.405 23.0525 492.677 23.0525C494.949 23.0525 497.078 23.579 498.938 24.6378C500.798 25.6965 502.269 27.1444 503.351 28.9872C504.427 30.83 504.97 32.8903 504.97 35.1624C504.97 37.4344 504.432 39.4832 503.351 41.3089C502.275 43.1345 500.804 44.571 498.938 45.6297C497.078 46.6885 494.989 47.215 492.677 47.215C490.365 47.215 488.333 46.6885 486.473 45.6297C484.613 44.571 483.143 43.1288 482.061 41.3089C480.985 39.4889 480.441 37.4573 480.441 35.2253C480.441 32.9933 480.979 30.8873 482.061 29.0216V29.0159ZM501.079 30.1605C500.254 28.6725 499.11 27.505 497.639 26.6637C496.168 25.8224 494.514 25.3989 492.671 25.3989C490.829 25.3989 489.232 25.8224 487.761 26.6637C486.29 27.505 485.146 28.6725 484.322 30.1605C483.498 31.6484 483.085 33.3367 483.085 35.2196C483.085 37.1025 483.498 38.7163 484.322 40.1871C485.146 41.658 486.29 42.8026 487.761 43.6267C489.232 44.4508 490.869 44.8628 492.671 44.8628C494.474 44.8628 496.168 44.4393 497.639 43.5981C499.11 42.7568 500.254 41.6007 501.079 40.1299C501.903 38.6591 502.315 37.0052 502.315 35.1624C502.315 33.3195 501.903 31.6542 501.079 30.1662V30.1605ZM493.198 28.4607C494.766 28.4607 496.019 28.8556 496.958 29.6339C497.897 30.418 498.372 31.4367 498.372 32.69C498.372 33.6687 498.097 34.4928 497.547 35.1566C496.998 35.8262 496.237 36.2955 495.253 36.5702L498.429 41.864H495.55L492.729 37.1025H490.668V41.864H488.082V28.4607H493.198ZM490.674 34.9277H493.084C493.828 34.9277 494.446 34.7331 494.938 34.3382C495.43 33.9491 495.67 33.3997 495.67 32.69C495.67 32.0262 495.436 31.5168 494.966 31.162C494.497 30.8072 493.868 30.6355 493.084 30.6355H490.674V34.9277Z" fill="#181818"/>
<path d="M58.9076 0H88.3581V58.9068H58.9076C42.6543 58.9068 29.457 45.7096 29.457 29.4563C29.4513 13.1972 42.6543 0 58.9076 0Z" fill="#181818"/>
<path d="M29.4505 58.9068C13.1858 58.9068 0 45.721 0 29.4505C0 13.1858 13.1858 0 29.4505 0V58.9068Z" fill="#181818"/>
<path d="M58.9023 58.9068C75.1671 58.9068 88.3529 72.0926 88.3529 88.3574C88.3529 104.622 75.1671 117.808 58.9023 117.808V58.9011V58.9068Z" fill="#181818"/>
<path d="M0 58.9068H29.4505C45.7039 58.9068 58.9011 72.1041 58.9011 88.3574C58.9011 104.611 45.7039 117.808 29.4505 117.808H0V58.9011V58.9068Z" fill="#181818"/>
</svg>
